<?xml version="1.0" standalone="no"?>
<!DOCTYPE svg PUBLIC "-//W3C//DTD SVG 20010904//EN"
 "http://www.w3.org/TR/2001/REC-SVG-20010904/DTD/svg10.dtd">
<svg version="1.0" xmlns="http://www.w3.org/2000/svg"
 width="242.000000pt" height="256.000000pt" viewBox="0 0 242.000000 256.000000"
 preserveAspectRatio="xMidYMid meet">
<metadata>
Created by potrace 1.16, written by Peter Selinger 2001-2019
</metadata>
<g transform="translate(0.000000,256.000000) scale(0.100000,-0.100000)"
fill="#000000" stroke="none">
<path d="M0 1433 c0 -951 2 -1125 14 -1113 7 8 87 112 177 230 89 118 196 258
235 310 l73 95 -25 15 c-13 8 -24 20 -24 27 0 7 -9 13 -20 13 -21 0 -24 4 -34
52 -4 19 -13 28 -26 28 -11 0 -20 7 -20 15 0 8 -4 15 -9 15 -5 0 -23 22 -40
48 -30 48 -31 51 -31 173 l0 124 93 43 c50 24 108 52 128 62 30 16 56 20 145
20 l109 0 19 -39 c19 -41 52 -76 97 -105 26 -16 28 -16 70 17 28 20 55 55 74
92 l30 59 3 375 3 376 38 40 c20 22 59 66 85 98 l48 57 -606 0 -606 0 0 -1127z"/>
<path d="M1570 2188 l0 -373 55 60 c30 33 54 63 55 67 0 11 200 252 221 267
10 7 19 17 19 22 0 4 25 34 55 65 30 32 55 62 55 67 0 5 31 46 68 91 38 44 72
87 76 94 6 9 -57 12 -298 12 l-306 0 0 -372z"/>
<path d="M1329 2319 c-48 -57 -96 -113 -108 -123 -20 -19 -21 -27 -21 -296 0
-152 3 -305 7 -340 l6 -62 64 68 c34 38 63 71 63 73 0 3 18 24 40 46 l40 41
-2 349 -3 348 -86 -104z"/>
<path d="M2307 2137 c-59 -89 -134 -200 -168 -247 -86 -121 -84 -113 -43 -142
51 -37 194 -179 194 -194 0 -3 9 -17 20 -31 17 -22 20 -41 20 -138 0 -96 -3
-114 -18 -128 -10 -10 -22 -17 -26 -17 -4 0 -36 -13 -71 -30 -132 -62 -162
-70 -251 -70 l-86 0 -77 79 c-92 95 -187 146 -289 154 -34 3 -68 10 -75 16 -8
6 -25 7 -43 2 -22 -5 -30 -15 -34 -36 -3 -20 -12 -31 -28 -35 -27 -6 -152
-148 -152 -172 0 -12 -8 -18 -21 -18 -22 0 -58 -36 -59 -57 0 -7 6 -13 14 -13
18 0 26 -22 26 -73 0 -54 9 -87 24 -87 6 0 22 -24 36 -52 47 -101 227 -248
304 -248 74 0 215 84 285 171 l46 58 106 0 c112 1 131 -4 352 -96 l37 -16 0
-68 c0 -37 5 -71 10 -74 14 -8 13 -98 -2 -130 -7 -15 -19 -25 -32 -25 -13 0
-29 -12 -39 -30 -12 -19 -26 -30 -41 -30 -17 0 -27 -9 -38 -39 -11 -26 -35
-54 -72 -83 -31 -24 -56 -51 -56 -60 0 -23 -108 -79 -175 -90 -27 -5 -81 -11
-120 -15 -47 -3 -73 -10 -79 -20 -7 -13 -33 -15 -185 -9 -199 8 -291 21 -291
43 0 7 -12 18 -27 24 -16 6 -41 17 -57 25 -16 8 -37 14 -47 14 -32 0 -68 22
-71 44 -2 15 -11 22 -33 24 -37 5 -55 19 -55 43 0 10 -21 38 -46 61 -47 43
-124 148 -124 167 0 6 -9 11 -19 11 -11 0 -22 9 -26 19 -5 16 -12 19 -43 14
-39 -7 -61 -26 -62 -55 0 -10 -7 -18 -15 -18 -8 0 -15 -8 -15 -18 0 -23 -19
-42 -41 -42 -20 0 -79 -70 -79 -94 0 -9 -7 -19 -15 -22 -8 -4 -15 -12 -15 -20
0 -8 -10 -14 -25 -14 -22 0 -25 -4 -25 -38 0 -41 -14 -62 -42 -62 -12 0 -18
-8 -18 -23 0 -27 -28 -57 -53 -57 -11 0 -17 -8 -17 -25 0 -22 -4 -25 -35 -25
-19 0 -35 -4 -35 -10 0 -7 382 -10 1125 -10 l1125 0 0 1150 c0 633 -1 1150 -2
1150 -2 0 -51 -73 -111 -163z"/>
<path d="M1740 1635 c-35 -42 -76 -85 -89 -94 l-24 -18 39 -7 c75 -14 184 -75
253 -142 36 -35 69 -64 73 -64 4 0 38 14 76 32 63 29 69 34 60 52 -19 38 -174
170 -244 208 -62 34 -69 41 -74 73 l-5 36 -65 -76z"/>
<path d="M545 1328 c-38 -18 -72 -33 -73 -34 -2 -2 10 -24 28 -49 46 -67 139
-132 227 -157 64 -19 73 -25 73 -45 0 -19 18 -3 89 79 l90 103 -112 5 c-127 6
-160 19 -219 91 l-33 39 -70 -32z"/>
<path d="M942 721 c-34 -38 -62 -75 -62 -82 0 -28 86 -142 159 -212 190 -181
424 -253 641 -198 165 42 262 100 388 230 69 71 80 87 65 92 -10 4 -48 19 -85
34 l-67 27 -58 -59 c-32 -32 -80 -72 -108 -88 -27 -15 -52 -31 -55 -35 -3 -4
-29 -11 -57 -15 -29 -4 -55 -11 -59 -16 -8 -14 -213 -10 -270 5 -155 41 -297
177 -353 336 l-18 50 -61 -69z"/>
</g>
</svg>
